<?xml version="1.0" standalone="no"?>
<!DOCTYPE svg PUBLIC "-//W3C//DTD SVG 20010904//EN"
 "http://www.w3.org/TR/2001/REC-SVG-20010904/DTD/svg10.dtd">
<svg version="1.0" xmlns="http://www.w3.org/2000/svg"
 width="3088.000000pt" height="3088.000000pt" viewBox="0 0 3088.000000 3088.000000"
 preserveAspectRatio="xMidYMid meet">
<metadata>
Created by potrace 1.14, written by Peter Selinger 2001-2017
</metadata>
<g transform="translate(0.000000,3088.000000) scale(0.100000,-0.100000)"
fill="#000000" stroke="none">
<path d="M0 15440 l0 -15440 15440 0 15440 0 0 15440 0 15440 -15440 0 -15440
0 0 -15440z m15275 8935 c50 -4 105 -13 124 -22 34 -15 61 -14 141 7 62 16
135 6 263 -36 60 -19 115 -33 122 -30 7 2 30 0 51 -6 22 -5 58 -11 82 -12 28
-2 51 -11 66 -26 14 -12 29 -19 35 -16 6 4 20 2 31 -4 11 -6 44 -13 73 -16 59
-7 151 -41 199 -75 23 -17 52 -25 107 -30 69 -6 138 -24 151 -40 3 -3 16 -12
29 -18 13 -7 49 -33 81 -57 32 -24 62 -44 68 -44 21 0 166 -50 191 -66 14 -10
47 -39 73 -65 32 -32 59 -50 83 -55 19 -3 54 -23 78 -45 25 -21 47 -35 51 -32
3 3 6 0 6 -9 0 -8 9 -23 20 -33 14 -12 20 -31 20 -57 0 -48 9 -65 59 -115 21
-21 51 -64 67 -97 16 -32 40 -65 54 -74 14 -9 44 -33 67 -55 38 -36 44 -39 71
-29 17 6 54 26 84 44 89 58 132 65 441 75 128 4 162 2 180 -10 12 -8 38 -18
57 -22 19 -4 41 -12 48 -17 6 -6 12 -8 12 -4 0 3 21 -7 48 -23 26 -16 61 -33
77 -37 17 -4 32 -10 35 -14 3 -4 40 -24 83 -44 47 -22 102 -59 137 -91 33 -30
63 -55 67 -55 18 0 81 -68 91 -99 7 -19 12 -57 12 -85 0 -28 5 -69 10 -91 17
-75 10 -207 -16 -308 -8 -32 -14 -77 -13 -101 2 -37 -2 -47 -38 -84 -43 -44
-72 -123 -55 -145 18 -23 7 -78 -23 -114 -5 -6 -21 -27 -35 -46 -47 -65 -140
-113 -140 -72 0 8 -7 15 -15 15 -7 0 -18 8 -23 17 -7 12 -23 16 -63 15 -55 -1
-79 -17 -79 -52 0 -23 24 -70 49 -97 l21 -22 -28 -33 c-49 -59 -100 -108 -114
-108 -10 0 -10 -2 0 -8 19 -13 -31 -32 -82 -32 -30 0 -46 -5 -50 -15 -3 -8
-12 -12 -21 -9 -9 4 -15 1 -15 -7 0 -16 -34 -51 -109 -113 -29 -25 -60 -54
-68 -66 -27 -38 -43 -130 -37 -210 7 -82 7 -81 -76 -168 -20 -21 -29 -37 -22
-40 21 -7 13 -21 -15 -24 -34 -4 -41 -25 -11 -38 22 -9 21 -9 -7 -8 -88 4
-109 -2 -138 -40 -16 -21 -26 -44 -23 -55 3 -14 0 -16 -15 -12 -13 4 -19 2
-19 -9 0 -9 -8 -16 -19 -16 -22 0 -46 -50 -36 -79 3 -11 16 -23 28 -27 25 -8
39 -21 55 -51 15 -27 15 -36 2 -28 -6 4 -10 -6 -10 -23 0 -22 6 -31 23 -36 18
-5 20 -8 7 -16 -12 -8 -12 -10 5 -10 24 0 53 -39 37 -49 -6 -4 -9 -18 -8 -33
2 -19 -1 -25 -10 -21 -8 3 -14 0 -14 -6 0 -21 -37 -11 -50 14 -7 14 -22 25
-31 25 -16 0 -17 -4 -9 -26 6 -14 15 -34 20 -45 8 -13 7 -19 0 -19 -6 0 -19
-17 -28 -38 -18 -40 -35 -60 -66 -77 -9 -5 -27 -28 -39 -50 -12 -22 -25 -42
-28 -45 -7 -6 -9 -24 -12 -92 -1 -26 -8 -53 -14 -59 -18 -18 -16 -29 5 -30 13
0 12 -2 -5 -9 -14 -6 -20 -15 -17 -27 6 -20 -69 -103 -92 -103 -7 0 -14 -6
-17 -12 -4 -10 -7 -10 -18 0 -17 16 -64 16 -81 -1 -41 -39 -150 -52 -163 -19
-6 16 -7 16 -16 0 -11 -20 37 -171 52 -162 5 3 24 0 43 -7 32 -12 34 -15 29
-48 -3 -20 -12 -43 -19 -52 -17 -19 -18 -39 -3 -39 5 0 7 -5 4 -10 -5 -8 -11
-7 -20 0 -11 9 -21 4 -44 -22 -17 -18 -31 -42 -31 -54 0 -11 -11 -31 -25 -44
-14 -13 -25 -29 -25 -35 0 -17 -24 -65 -33 -65 -5 0 -5 -5 -2 -10 3 -6 -5 -14
-18 -19 -14 -6 -28 -15 -32 -20 -3 -6 -14 -11 -24 -11 -10 0 -30 -13 -44 -30
-47 -52 -83 -36 -89 39 -3 44 -28 75 -45 57 -4 -5 -2 -11 5 -13 7 -3 12 -21
12 -43 0 -21 5 -40 12 -42 18 -6 -21 -58 -44 -58 -14 0 -18 -5 -14 -15 3 -9
-1 -18 -9 -21 -8 -3 -17 -15 -20 -25 -4 -11 -16 -29 -28 -39 -26 -25 -37 -12
-37 43 0 34 -2 37 -30 37 -28 0 -30 -2 -31 -42 -1 -24 -3 -35 -6 -25 -2 9 -9
17 -14 17 -5 0 -9 11 -9 24 0 25 5 28 70 42 30 6 32 8 15 15 -37 14 -70 9 -97
-15 -14 -14 -28 -29 -29 -33 -2 -5 -24 -19 -48 -32 -34 -17 -46 -19 -52 -9
-14 22 -16 4 -2 -22 7 -14 13 -19 13 -12 0 23 38 13 44 -13 6 -24 26 -36 26
-15 0 6 5 10 10 10 6 0 10 -7 10 -15 0 -8 -4 -15 -10 -15 -5 0 -10 -4 -10 -10
0 -5 16 -10 36 -10 23 0 42 -6 50 -17 16 -21 18 -63 4 -63 -5 0 -10 -6 -10
-13 0 -23 -39 -38 -84 -32 -27 4 -47 2 -51 -4 -3 -6 -21 -11 -38 -11 -45 1
-140 -48 -155 -79 -15 -30 -16 -101 -2 -101 6 0 10 7 10 15 0 24 36 36 92 29
48 -6 59 -3 106 25 57 33 78 38 85 19 3 -10 11 -10 39 0 19 6 42 12 51 12 9 0
20 6 24 13 4 6 19 12 33 12 26 0 30 10 45 108 5 29 10 37 26 37 30 0 59 18 59
38 1 16 1 16 11 0 15 -26 26 -22 46 15 17 30 18 31 21 9 2 -16 8 -22 19 -18 8
3 27 6 41 7 16 0 21 3 12 6 -8 3 -26 10 -39 15 l-24 9 23 24 c13 14 34 25 46
25 13 0 26 5 30 11 3 6 17 9 30 6 18 -3 24 0 24 14 0 14 7 19 25 19 18 0 25 5
23 16 -2 10 7 20 20 25 20 7 25 5 29 -11 3 -11 12 -20 20 -20 11 0 13 9 8 45
-6 33 -3 48 8 60 21 21 24 19 25 -12 0 -16 1 -52 2 -82 2 -39 -2 -58 -13 -66
-8 -6 -20 -30 -26 -53 -11 -41 -41 -60 -41 -26 0 23 -24 11 -28 -14 -3 -20 -9
-22 -82 -22 -71 0 -79 -2 -85 -21 -4 -13 -2 -25 5 -29 9 -6 8 -15 -5 -39 -16
-32 -16 -33 10 -53 24 -19 25 -22 10 -30 -12 -7 -23 -3 -42 16 -14 14 -31 26
-38 26 -7 0 -20 18 -30 40 -11 24 -25 40 -35 40 -28 0 -80 -55 -80 -84 0 -15
-6 -35 -12 -46 -10 -15 -10 -22 0 -32 9 -9 12 -8 12 5 0 21 12 21 48 3 15 -7
53 -16 85 -19 77 -7 106 -27 106 -69 0 -43 -48 -138 -76 -151 -12 -5 -27 -23
-32 -39 -6 -16 -20 -32 -31 -35 -20 -5 -20 -7 7 -24 15 -11 39 -19 53 -19 21
0 66 -12 140 -38 8 -3 17 -6 20 -7 38 -13 62 -28 67 -42 4 -10 17 -31 30 -47
23 -28 23 -29 6 -49 -13 -14 -15 -21 -5 -24 13 -5 17 -25 4 -20 -5 1 -23 -13
-39 -30 -17 -18 -38 -33 -47 -33 -10 0 -16 -7 -14 -17 2 -11 -5 -19 -17 -21
-11 -2 -29 -13 -41 -23 -11 -11 -24 -16 -27 -12 -4 3 -7 1 -7 -5 0 -7 -6 -12
-14 -12 -8 0 -25 -13 -38 -29 -25 -31 -76 -61 -105 -61 -10 0 -27 -7 -37 -15
-11 -8 -28 -13 -37 -10 -11 4 -21 -1 -27 -12 -13 -23 -92 -47 -157 -47 -27 0
-54 -5 -60 -12 -12 -14 -75 -24 -75 -12 0 5 -9 4 -19 -2 -11 -5 -27 -10 -35
-10 -21 0 -66 -40 -66 -57 0 -8 14 -19 30 -24 17 -6 30 -15 30 -20 0 -6 26 -7
63 -3 47 5 81 1 137 -14 95 -26 130 -31 210 -33 85 -1 131 -15 123 -36 -4 -11
-2 -14 5 -9 18 11 71 -25 87 -58 26 -52 20 -77 -26 -113 -17 -14 -89 0 -89 17
0 6 -11 10 -24 10 -14 0 -27 4 -31 9 -3 6 -18 6 -38 0 -40 -11 -37 -12 -37 5
0 8 -18 18 -40 24 -22 5 -40 6 -40 2 0 -4 -15 -5 -32 -1 -32 6 -150 0 -270
-14 -48 -6 -61 -4 -85 13 -53 38 -160 55 -181 29 -7 -8 -29 -12 -57 -10 -32 2
-47 -2 -51 -11 -9 -24 -124 -57 -124 -36 0 16 -41 11 -86 -9 -23 -10 -57 -22
-75 -26 -38 -8 -82 -43 -73 -57 4 -6 -14 -9 -42 -7 -66 2 -124 -10 -124 -27 0
-10 -13 -14 -44 -14 -26 0 -48 -6 -56 -15 -7 -8 -18 -15 -24 -15 -7 0 -18 -15
-26 -34 -9 -23 -18 -32 -28 -29 -12 5 -12 7 2 15 27 15 18 26 -25 33 -26 4
-45 3 -52 -4 -16 -16 -34 -13 -67 11 l-29 21 -41 -27 c-41 -27 -41 -28 -26
-52 15 -22 15 -24 -2 -24 -25 0 -42 -19 -42 -47 0 -16 -6 -23 -20 -23 -13 0
-20 -7 -20 -18 0 -10 -6 -26 -13 -36 -13 -18 -15 -17 -34 8 -21 26 -43 35 -43
16 0 -5 6 -10 14 -10 14 0 24 -33 18 -62 -4 -19 -62 -26 -62 -8 0 19 -17 10
-28 -15 -16 -36 -17 -35 28 -35 27 0 40 -4 40 -13 0 -8 10 -26 23 -41 19 -21
29 -25 57 -22 19 3 41 5 47 5 7 1 21 18 32 39 l20 37 1 -31 c0 -16 5 -35 12
-42 13 -13 3 -16 -35 -12 -10 1 -26 -4 -35 -12 -44 -35 -61 -39 -87 -22 -23
15 -28 15 -64 1 -31 -13 -41 -14 -50 -4 -6 7 -6 18 -1 26 13 22 -10 61 -36 61
-12 0 -24 5 -26 12 -3 9 -12 9 -36 -1 -17 -7 -35 -10 -40 -7 -6 3 -8 -2 -5
-14 5 -18 0 -20 -36 -20 -23 0 -41 -5 -41 -11 0 -20 -38 -60 -46 -48 -5 8 -9
7 -16 -5 -5 -9 -23 -22 -41 -30 -42 -18 -71 -44 -88 -81 -10 -21 -23 -31 -42
-33 -15 -2 -25 -8 -21 -13 4 -6 -21 -8 -68 -4 -40 3 -74 9 -76 14 -2 5 -12 6
-24 3 -12 -3 -26 1 -32 9 -18 23 -77 40 -93 28 -9 -8 -13 -8 -13 -1 0 18 -61
-19 -72 -44 -6 -13 -14 -21 -18 -19 -4 2 -16 -2 -26 -10 -10 -8 -29 -15 -41
-15 -13 0 -23 -6 -23 -14 0 -8 -15 -16 -37 -19 -21 -3 -53 -9 -70 -13 -32 -6
-33 -5 -33 25 0 20 5 31 14 31 23 0 39 29 38 68 -2 40 -25 66 -53 57 -9 -3
-38 2 -64 10 -34 12 -61 15 -99 9 -28 -4 -58 -7 -66 -6 -8 1 -32 -4 -54 -12
l-38 -13 23 -17 c13 -9 30 -16 39 -16 14 0 50 -58 50 -80 0 -15 -46 -12 -59 4
-9 11 -39 14 -127 13 -97 -1 -117 -4 -131 -19 -9 -10 -13 -21 -10 -25 4 -3 -1
-15 -10 -25 -16 -18 -15 -20 8 -36 16 -11 46 -17 89 -18 59 -1 65 -3 64 -23 0
-17 4 -19 23 -15 24 6 24 5 22 -53 l-2 -60 -47 -12 c-42 -11 -81 -40 -87 -66
-1 -5 -7 -37 -13 -70 -7 -33 -18 -72 -26 -88 -20 -39 -81 -104 -127 -138 -41
-30 -73 -30 -127 -2 -14 7 -30 13 -36 13 -6 0 -24 19 -41 43 -17 23 -56 69
-87 102 -31 33 -60 64 -64 68 -12 13 -86 79 -154 137 -36 30 -77 73 -91 95
-14 22 -45 66 -67 99 -60 83 -71 115 -59 160 5 20 21 43 34 52 31 20 162 43
248 44 70 0 143 -22 132 -39 -3 -6 6 -13 20 -17 15 -4 41 -19 58 -35 17 -16
37 -29 45 -29 7 0 15 -7 18 -15 4 -8 10 -13 15 -10 4 3 24 -1 43 -9 32 -13 37
-13 51 0 8 9 15 19 15 24 0 16 32 40 53 40 15 0 18 -3 9 -8 -23 -15 -2 -42 33
-42 27 0 34 -5 38 -22 3 -21 5 -20 17 10 9 25 17 32 31 29 11 -3 21 -1 24 3 3
5 -6 10 -19 12 -24 3 -24 3 -6 26 15 18 33 24 77 28 43 4 62 11 75 27 9 12 13
24 8 25 -16 6 -12 22 18 63 33 47 119 93 252 135 30 9 64 20 75 25 22 9 118
19 178 19 20 0 46 4 56 10 11 5 59 12 107 16 49 3 92 8 95 10 4 2 21 -1 38 -7
21 -7 40 -8 59 -1 20 7 33 6 45 -3 21 -15 22 -35 3 -35 -8 0 -16 -10 -18 -22
-3 -20 -9 -23 -51 -22 -39 0 -47 -2 -42 -15 12 -30 10 -36 -8 -33 -12 2 -21
-4 -24 -18 -5 -17 -11 -19 -38 -14 -25 4 -41 -1 -78 -26 -26 -17 -49 -35 -52
-41 -4 -5 -17 -9 -30 -9 -13 0 -27 -5 -31 -11 -7 -12 15 -31 28 -23 4 3 8 -10
8 -28 0 -21 3 -28 8 -20 14 22 70 33 86 16 20 -20 30 -18 57 11 13 13 29 25
36 25 17 0 33 33 28 58 -2 15 0 19 11 15 9 -3 14 1 14 13 0 16 2 16 16 -4 17
-24 34 -21 34 7 0 24 36 65 49 56 16 -9 13 -35 -4 -35 -8 0 -15 -7 -15 -15 0
-8 9 -15 20 -15 11 0 20 5 20 10 0 15 40 12 41 -2 0 -7 5 -3 11 10 6 13 17 21
24 18 8 -3 16 -1 19 4 4 6 -7 10 -24 10 -17 0 -31 4 -31 9 0 8 47 24 75 26 6
0 15 4 22 8 6 4 15 3 18 -3 9 -14 35 6 35 26 0 8 6 14 14 14 7 0 19 7 26 15 7
8 21 15 31 15 18 0 26 20 13 33 -4 4 -9 38 -11 77 -4 63 -3 70 14 70 10 0 27
6 38 14 11 7 31 17 45 21 14 4 36 15 50 25 14 10 53 20 88 23 35 4 67 9 73 12
5 4 21 9 35 11 31 6 114 60 114 74 0 6 7 10 16 10 8 0 12 5 9 10 -7 12 -2 12
101 10 71 -1 87 2 144 29 35 17 71 31 80 31 25 0 113 31 130 46 8 7 37 20 63
29 46 16 49 15 63 -2 9 -13 13 -14 14 -4 0 10 8 12 30 8 25 -6 30 -3 30 13 0
11 -4 20 -10 20 -5 0 -10 -4 -10 -10 0 -5 -7 -10 -15 -10 -8 0 -12 6 -9 14 8
21 -23 27 -128 25 -85 -1 -179 -17 -235 -40 -13 -5 -33 -13 -45 -18 -22 -9
-58 -18 -107 -27 -13 -3 -36 -14 -51 -24 -25 -18 -56 -23 -100 -19 -8 1 -49
-4 -90 -11 -41 -8 -79 -14 -85 -15 -30 -2 -125 -37 -125 -45 0 -6 -8 -10 -18
-10 -11 0 -27 -9 -37 -20 -10 -11 -26 -22 -36 -25 -11 -4 -19 -15 -19 -25 0
-10 -7 -20 -15 -24 -8 -3 -20 -17 -25 -30 -7 -18 -19 -27 -47 -32 -25 -5 -38
-3 -41 5 -2 6 -12 11 -22 11 -10 0 -20 7 -24 15 -3 8 -12 15 -19 15 -8 0 -19
6 -25 13 -14 16 -88 22 -97 7 -3 -5 -15 -10 -26 -10 -10 0 -36 -9 -56 -20 -29
-15 -57 -20 -120 -20 -89 0 -170 -13 -220 -36 -17 -8 -49 -14 -71 -14 -23 0
-44 -4 -47 -10 -3 -5 -18 -10 -33 -10 -15 0 -38 -7 -50 -16 -12 -8 -22 -12
-22 -9 0 3 -9 1 -20 -5 -12 -6 -40 -13 -62 -16 -23 -3 -49 -9 -59 -15 -10 -5
-19 -5 -21 0 -2 5 -23 10 -48 12 -25 1 -50 6 -55 10 -6 4 -40 9 -75 11 -62 3
-65 4 -73 33 -5 17 -13 37 -18 47 -19 38 -41 148 -42 209 -1 80 16 112 70 129
65 21 110 48 112 67 1 10 2 31 2 46 0 27 2 28 37 25 35 -3 37 -1 40 28 2 19
-3 38 -13 47 -14 14 -14 17 2 26 17 9 17 11 -4 30 -30 28 -77 27 -130 -4 -23
-14 -43 -21 -43 -15 0 6 -7 19 -16 27 -11 11 -12 18 -4 23 10 6 -24 52 -47 61
-5 2 -16 18 -24 34 -9 20 -22 30 -36 30 -12 0 -25 3 -29 8 -4 4 -21 7 -37 7
-22 0 -40 12 -78 53 -27 28 -49 57 -49 63 0 11 -45 47 -73 57 -10 4 -16 11
-12 16 3 5 1 12 -4 15 -5 3 -12 29 -16 57 -7 47 -9 50 -31 45 -14 -4 -24 -2
-24 4 0 6 -8 9 -18 6 -32 -10 -90 58 -97 113 -10 67 -15 83 -29 78 -17 -7 -43
15 -47 38 -3 13 -14 21 -31 23 -29 3 -31 6 -48 97 -17 86 -30 116 -49 113 -10
-2 -17 5 -19 20 -2 12 -8 22 -13 22 -5 0 -9 15 -9 34 0 39 -18 96 -31 96 -13
0 -11 88 2 96 7 4 7 9 2 13 -6 3 -14 20 -20 36 -8 24 -17 32 -51 39 -33 7 -44
15 -57 42 -9 19 -14 38 -11 43 14 22 -66 208 -94 219 -24 10 -102 95 -92 101
5 3 12 30 15 59 6 52 6 53 -28 74 -24 14 -35 27 -35 43 0 13 -8 30 -18 37 -26
18 -43 66 -69 191 -3 15 -21 39 -39 54 -22 16 -38 39 -45 65 -6 22 -19 50 -30
61 -10 11 -19 32 -19 45 0 13 -8 37 -17 53 -14 24 -15 33 -5 47 45 62 51 76
41 94 -6 11 -14 40 -19 66 -32 180 -64 300 -92 342 -25 38 -28 51 -22 85 16
97 5 115 -108 173 -16 7 -28 17 -28 21 0 4 -9 17 -21 30 -16 17 -24 19 -34 11
-20 -16 -83 -2 -90 20 -6 20 -49 52 -79 60 -27 8 -31 27 -7 35 12 3 21 10 21
15 0 14 -58 23 -165 27 -97 3 -198 8 -222 11 -13 2 -60 101 -55 116 2 5 -10 6
-26 3 -22 -4 -34 -1 -47 13 -10 11 -24 20 -32 20 -7 0 -13 6 -13 14 0 14 -49
30 -85 28 -11 0 -14 2 -7 4 18 8 4 24 -21 24 -12 0 -28 9 -35 20 -8 13 -23 20
-41 20 -21 0 -37 9 -53 29 -13 16 -66 68 -119 115 -58 52 -104 102 -117 128
-36 71 -43 192 -27 433 9 141 17 157 98 199 39 21 92 68 183 164 71 75 142
147 158 161 17 14 59 53 94 87 91 87 182 133 279 143 43 5 96 16 118 24 22 9
65 18 96 21 31 2 90 10 130 17 65 10 85 10 149 -5 41 -9 124 -20 185 -23 98
-6 117 -10 172 -38 34 -18 76 -35 95 -38 18 -3 51 -11 73 -18 22 -7 96 -14
165 -16 l124 -3 33 32 c54 53 84 103 93 160 16 95 22 118 30 118 4 0 10 10 14
23 3 12 16 33 28 47 13 14 35 42 51 62 43 58 119 129 154 144 18 8 44 31 57
52 13 21 37 50 54 64 16 13 42 44 58 69 49 77 84 109 121 109 18 0 33 4 33 9
0 5 15 14 33 20 19 7 47 26 63 44 16 17 63 49 105 71 42 21 90 51 107 67 17
16 63 44 104 63 42 21 92 55 118 81 25 25 63 51 85 59 22 7 56 19 75 26 19 6
69 15 110 19 49 5 97 18 140 38 36 16 79 36 95 43 17 7 59 15 94 16 50 3 70 9
97 29 32 24 40 26 107 21 40 -2 92 -8 116 -12 23 -3 68 -1 100 5 31 5 110 13
175 16 66 3 122 8 125 11 3 3 31 3 61 0 30 -3 96 -8 145 -11z m2132 -4851 c-3
-3 -12 -4 -19 -1 -8 3 -5 6 6 6 11 1 17 -2 13 -5z m-40 -346 c-3 -8 -6 -5 -6
6 -1 11 2 17 5 13 3 -3 4 -12 1 -19z m-2059 -2070 c-6 -18 -28 -21 -28 -4 0 9
7 16 16 16 9 0 14 -5 12 -12z m1138 -189 c4 -8 26 -9 65 -5 39 5 59 3 59 -4 0
-22 2 -25 23 -37 26 -15 62 -16 85 -4 9 4 54 11 100 15 70 5 82 4 82 -9 0 -8
5 -15 10 -15 17 0 11 -13 -20 -50 -16 -19 -35 -41 -40 -47 -6 -7 -25 -13 -43
-13 -18 0 -48 -4 -68 -9 -25 -6 -46 -4 -68 5 -25 10 -43 11 -82 3 -27 -6 -49
-15 -49 -20 0 -5 -6 -9 -14 -9 -8 0 -23 -10 -33 -23 -11 -14 -43 -31 -78 -42
-33 -10 -64 -22 -70 -25 -5 -4 -36 -10 -68 -13 -32 -3 -64 -10 -72 -17 -8 -6
-47 -16 -86 -21 -40 -5 -82 -15 -94 -23 -14 -9 -46 -14 -91 -13 -57 1 -77 -3
-107 -22 -35 -21 -39 -22 -68 -7 -40 20 -149 20 -203 1 -22 -7 -71 -19 -110
-26 -39 -6 -82 -19 -96 -28 -43 -27 -121 -61 -140 -61 -10 0 -40 -10 -67 -22
-56 -25 -83 -30 -100 -16 -8 6 -33 4 -73 -6 -34 -9 -88 -16 -121 -16 -32 0
-59 -3 -59 -8 0 -11 -50 -29 -104 -37 -26 -4 -62 -14 -80 -24 -17 -9 -49 -22
-72 -29 -23 -7 -61 -28 -85 -47 -24 -19 -49 -35 -54 -35 -21 0 -88 -39 -102
-60 -8 -11 -34 -25 -59 -31 -24 -6 -64 -26 -88 -45 -24 -18 -56 -36 -72 -40
-16 -4 -31 -10 -34 -13 -7 -9 -69 -32 -115 -43 -22 -5 -53 -14 -70 -20 -16 -5
-41 -12 -55 -15 -14 -3 -41 -23 -61 -44 -21 -21 -52 -42 -75 -48 -21 -6 -50
-22 -63 -36 -13 -14 -31 -25 -41 -25 -12 0 -45 -43 -104 -137 -47 -76 -103
-156 -126 -177 -22 -22 -40 -46 -40 -54 0 -9 -6 -12 -16 -8 -9 3 -20 6 -25 6
-5 0 -9 9 -9 20 0 11 4 20 9 20 9 0 14 16 26 79 2 13 17 39 32 59 15 20 33 44
38 53 41 67 97 142 137 186 27 29 51 66 54 82 4 17 12 35 20 42 7 6 10 17 7
25 -3 8 7 20 27 31 18 10 54 33 81 51 27 17 53 32 59 32 23 0 63 36 76 67 8
19 22 33 32 34 16 0 16 1 0 7 -15 6 -15 10 -1 42 9 19 15 39 14 43 0 4 6 10
14 13 8 4 15 11 15 18 0 14 52 46 74 46 9 0 29 8 44 19 15 10 37 24 48 32 12
8 49 35 82 62 42 32 78 52 119 62 107 27 120 27 142 4 11 -12 25 -18 31 -14 7
4 35 8 63 10 50 2 107 21 107 35 0 4 26 15 58 24 104 32 116 36 133 52 13 12
48 16 152 19 74 2 144 8 155 14 12 6 41 11 66 11 26 0 51 6 59 15 15 15 82 42
126 51 13 3 33 11 44 19 10 7 25 11 33 8 8 -3 30 4 49 16 28 16 53 21 110 21
40 0 86 5 101 10 14 6 59 11 98 12 39 0 74 6 78 12 4 5 26 12 49 13 23 2 64
16 94 33 39 23 70 32 117 35 100 7 230 23 236 29 10 11 131 6 138 -5z m-1146
-49 c0 -5 -4 -10 -10 -10 -5 0 -10 5 -10 10 0 6 5 10 10 10 6 0 10 -4 10 -10z
m-2025 -220 c4 -6 -5 -10 -19 -10 -14 0 -26 5 -26 10 0 6 9 10 19 10 11 0 23
-4 26 -10z m402 -92 c-3 -8 -6 -5 -6 6 -1 11 2 17 5 13 3 -3 4 -12 1 -19z
m-1571 -137 c16 -8 92 -106 105 -134 5 -12 16 -32 23 -45 22 -38 294 -322 309
-322 9 0 32 -18 50 -39 7 -7 33 -36 60 -64 26 -28 47 -55 47 -61 0 -5 9 -19
20 -31 11 -12 36 -52 55 -90 47 -90 47 -135 0 -221 -23 -42 -35 -78 -35 -103
0 -39 -11 -82 -36 -138 -8 -17 -14 -39 -14 -50 -1 -29 -44 -53 -105 -58 -49
-4 -61 -2 -89 20 -18 14 -37 25 -42 25 -5 0 -27 16 -49 35 -35 31 -143 75
-183 75 -6 0 -14 9 -17 20 -4 12 -24 32 -45 45 -21 13 -41 29 -45 34 -3 6 -21
18 -39 26 -18 9 -39 27 -46 40 -7 14 -17 25 -22 25 -4 0 -8 7 -8 15 0 8 -8 15
-18 15 -23 0 -58 35 -86 85 -18 34 -27 40 -57 43 -23 2 -40 -2 -49 -12 -16
-20 -30 -20 -30 -1 0 17 -16 20 -25 5 -4 -6 -10 -8 -15 -5 -5 3 -11 1 -15 -5
-10 -15 -23 -12 -28 8 -4 13 -5 12 -6 -5 0 -12 4 -25 9 -28 6 -3 10 -12 9 -18
0 -9 -2 -9 -6 1 -2 6 -17 12 -32 12 -25 0 -26 2 -23 40 3 32 1 40 -12 40 -12
0 -16 -11 -17 -42 -2 -30 -3 -35 -6 -15 -2 15 -9 27 -14 27 -5 0 -9 8 -9 18
-1 16 -1 16 -11 -1 -6 -9 -9 -32 -7 -50 2 -26 7 -32 26 -30 12 2 22 -2 22 -7
0 -6 17 -10 38 -11 34 0 35 -1 12 -10 -13 -6 -27 -14 -30 -18 -3 -4 -14 -13
-25 -20 -19 -11 -19 -11 -1 -9 14 2 26 -8 40 -34 11 -21 24 -38 30 -38 6 0 16
-10 21 -22 6 -14 27 -28 56 -37 35 -12 49 -23 57 -44 6 -16 20 -31 32 -34 11
-3 27 -18 36 -34 13 -26 54 -59 54 -43 0 3 7 1 15 -6 8 -7 12 -17 9 -22 -3 -5
3 -12 15 -15 12 -3 21 -10 21 -15 0 -5 14 -14 30 -20 17 -5 29 -15 27 -21 -2
-6 8 -21 22 -32 30 -24 129 -75 147 -75 6 0 29 -15 50 -34 22 -19 64 -42 94
-52 30 -9 80 -30 110 -46 40 -21 66 -28 100 -27 25 1 59 -4 75 -12 29 -14 30
-16 30 -89 0 -59 -5 -85 -24 -124 -25 -52 -54 -86 -71 -86 -5 0 -10 -9 -10
-19 0 -10 -7 -21 -15 -25 -8 -3 -15 -12 -15 -21 0 -8 -6 -15 -13 -15 -7 0 -28
-16 -47 -35 -19 -19 -40 -35 -47 -35 -8 0 -11 -27 -10 -91 l2 -92 -60 -3 c-33
-1 -78 -7 -100 -13 -22 -6 -52 -13 -67 -17 -16 -3 -28 -10 -28 -15 0 -5 -7 -9
-15 -9 -8 0 -25 -10 -36 -21 -15 -15 -23 -18 -29 -10 -6 11 -25 10 -82 -6 -16
-4 -16 -7 -4 -31 20 -38 73 -92 91 -92 11 0 15 -11 15 -40 0 -22 -4 -40 -10
-40 -5 0 -10 -13 -10 -30 0 -16 -4 -30 -10 -30 -5 0 -10 -9 -10 -20 0 -11 -11
-27 -25 -36 -14 -9 -28 -27 -31 -41 -4 -13 -22 -40 -41 -58 -31 -30 -35 -38
-29 -70 6 -28 4 -35 -9 -35 -8 0 -14 -3 -13 -8 4 -9 -84 -122 -94 -122 -5 0
-8 -6 -8 -14 0 -7 -18 -32 -40 -55 -22 -22 -40 -48 -40 -56 0 -8 -11 -17 -25
-21 -23 -6 -25 -11 -25 -65 0 -32 -4 -59 -10 -59 -5 0 -7 -7 -4 -15 9 -23
-119 -145 -152 -145 -25 0 -84 -52 -105 -93 -11 -21 -26 -40 -34 -44 -8 -3
-15 -9 -15 -14 0 -5 -18 -27 -41 -50 -30 -30 -38 -44 -30 -52 14 -14 14 -47 1
-47 -5 0 -10 -9 -10 -19 0 -10 -7 -21 -15 -25 -8 -3 -20 -17 -27 -31 -6 -14
-16 -25 -21 -25 -5 0 -20 -12 -33 -26 -19 -20 -22 -29 -14 -44 16 -30 12 -96
-8 -119 -12 -15 -34 -24 -72 -30 -30 -4 -66 -13 -79 -20 -15 -8 -26 -9 -30 -3
-3 5 -31 13 -61 17 -30 4 -65 13 -77 21 -12 8 -31 14 -41 14 -51 0 -111 34
-191 109 -46 44 -95 85 -108 92 -14 7 -31 26 -39 41 -8 15 -19 28 -24 28 -6 0
-10 4 -10 10 0 5 -11 26 -25 46 -14 20 -25 44 -25 53 0 9 -14 32 -31 51 -49
53 -57 84 -76 281 -19 208 -20 254 -8 464 7 123 12 158 30 195 13 25 25 65 29
90 3 25 15 70 25 100 11 30 22 71 26 91 3 20 17 52 31 70 52 69 94 144 94 166
0 35 24 85 55 113 39 37 55 73 55 129 0 42 10 68 69 178 38 70 74 152 80 181
13 63 24 86 61 126 16 16 43 54 61 84 33 52 72 99 114 133 62 49 219 275 276
397 26 54 47 85 62 91 12 5 38 15 56 22 19 7 49 26 67 41 59 52 195 58 179 8
-7 -23 7 -27 25 -6 6 8 19 12 28 9 15 -6 15 -5 3 10 -11 13 -11 23 -3 40 6 12
25 76 42 142 35 135 52 176 103 255 62 95 81 120 133 176 50 53 53 55 90 48
22 -3 44 -9 50 -13z m5600 -52 c25 -9 145 -141 157 -171 12 -34 0 -52 -59 -93
-30 -21 -72 -58 -92 -81 -31 -36 -48 -46 -102 -60 -36 -10 -77 -15 -90 -11
-28 7 -142 110 -159 144 -15 30 -14 71 5 126 14 41 23 50 82 83 37 21 70 42
73 47 4 5 29 15 55 23 47 12 85 11 130 -7z m-1706 -235 c24 -3 52 -11 60 -19
9 -8 19 -12 23 -9 8 8 47 -5 47 -17 0 -5 -7 -9 -16 -9 -11 0 -14 -6 -8 -22 8
-28 22 -38 52 -38 24 0 30 15 10 23 -25 10 13 24 66 25 59 0 81 -9 81 -35 0
-15 7 -18 39 -16 40 3 69 27 61 51 -6 15 7 16 23 0 9 -9 21 -9 50 0 22 7 55
12 73 12 23 0 38 6 46 19 10 16 22 18 95 15 104 -4 159 -10 189 -19 29 -10 79
-46 79 -57 0 -5 12 -35 26 -66 37 -82 41 -93 53 -132 6 -19 23 -71 37 -115 15
-44 26 -90 26 -102 0 -13 4 -23 9 -23 5 0 9 -10 9 -22 0 -13 6 -46 14 -73 25
-95 4 -136 -74 -141 -148 -10 -187 -14 -200 -18 -8 -3 -42 -7 -75 -10 -101 -8
-137 -13 -220 -30 -200 -43 -211 -44 -332 -52 -46 -3 -83 -9 -83 -14 0 -16
-57 -29 -116 -27 -47 1 -66 -2 -81 -15 -15 -14 -37 -18 -90 -18 -51 0 -74 -4
-83 -15 -8 -9 -30 -15 -57 -15 -24 0 -57 -7 -73 -15 -17 -9 -65 -22 -107 -31
-43 -8 -92 -22 -110 -30 -17 -8 -49 -14 -70 -14 -22 0 -66 -9 -99 -20 -32 -11
-77 -20 -98 -20 -27 0 -47 -7 -63 -22 -16 -15 -42 -24 -84 -29 -41 -5 -68 -14
-84 -29 -13 -12 -42 -24 -67 -27 -23 -4 -58 -17 -76 -31 -23 -18 -46 -25 -82
-26 -32 -1 -59 -9 -77 -22 -16 -12 -50 -23 -76 -26 -29 -3 -57 -14 -70 -26
-23 -21 -56 -33 -104 -36 -16 -1 -44 -13 -63 -28 -19 -14 -50 -28 -69 -32 -19
-3 -58 -17 -86 -31 -28 -13 -60 -22 -71 -19 -12 3 -34 -7 -61 -30 -22 -20 -50
-36 -62 -36 -25 0 -65 -17 -110 -47 -19 -13 -49 -23 -70 -23 -25 0 -46 -9 -70
-29 -18 -16 -48 -31 -66 -34 -18 -3 -51 -19 -73 -35 -22 -16 -62 -37 -89 -47
-26 -10 -61 -31 -77 -46 -20 -20 -36 -27 -50 -23 -14 3 -36 -5 -59 -20 -21
-15 -42 -26 -47 -26 -12 0 -90 -37 -125 -59 -16 -11 -41 -20 -54 -20 -13 -1
-38 -12 -56 -25 -17 -13 -49 -29 -71 -35 -22 -6 -51 -22 -64 -36 -13 -14 -33
-25 -45 -25 -12 0 -36 -11 -55 -25 -19 -14 -40 -25 -47 -25 -8 0 -24 -10 -37
-23 -26 -26 -86 -57 -110 -57 -23 0 -21 63 3 114 10 23 26 73 36 111 20 81 57
211 87 305 21 66 71 154 101 179 10 7 17 20 17 28 0 7 7 16 15 19 8 4 15 12
15 19 0 7 23 32 51 56 85 72 163 151 198 201 19 26 43 50 53 54 13 4 16 9 10
17 -5 7 -9 30 -7 52 3 55 3 55 20 55 8 0 23 12 33 28 24 38 113 132 125 132 6
0 18 7 28 16 9 8 31 16 48 16 17 1 36 7 42 15 15 18 27 16 32 -4 3 -11 5 -7 6
10 0 15 5 27 10 27 5 0 16 3 24 6 10 4 21 -4 31 -23 9 -16 15 -22 16 -12 0 8
12 26 27 40 14 13 23 18 19 11 -10 -17 24 -29 35 -11 6 11 14 11 40 2 35 -13
52 -2 78 49 8 16 19 24 27 21 8 -3 14 1 14 11 0 14 4 15 20 6 14 -8 26 -8 40
0 11 6 20 8 20 6 0 -3 17 1 38 8 41 15 72 6 72 -19 0 -20 26 -19 34 0 3 8 12
15 19 15 8 0 22 9 32 20 10 11 22 17 26 14 5 -3 9 1 9 8 0 9 3 9 10 -2 7 -11
8 -6 4 18 -6 30 -5 32 22 32 38 0 58 14 51 35 -4 10 -3 14 4 10 5 -4 15 -2 22
3 7 5 29 13 51 16 21 4 49 18 63 32 l24 24 32 -32 c18 -18 35 -31 40 -30 4 1
7 -4 7 -12 0 -17 41 -29 54 -16 7 7 0 10 -17 10 -23 0 -27 4 -27 31 0 16 -4
28 -9 25 -5 -3 -14 1 -21 9 -11 13 -8 15 14 15 16 0 26 5 26 15 0 8 -7 15 -15
15 -8 0 -15 5 -15 10 0 14 13 13 29 -2 10 -11 14 -9 22 5 6 10 22 22 36 28 20
7 23 12 13 23 -9 12 -7 17 9 25 11 6 29 11 41 11 12 0 35 13 51 29 16 16 31
25 34 21 3 -5 17 -5 31 0 19 8 26 6 30 -5 8 -20 54 -20 55 0 1 8 3 20 4 25 1
6 3 19 4 30 1 14 8 20 26 20 14 0 25 -5 25 -11 0 -5 5 -7 11 -3 11 6 53 9 182
13 34 1 47 5 47 16 0 9 6 12 15 9 9 -4 23 3 33 16 15 18 22 21 38 12 33 -17
111 -10 128 13 10 12 19 16 23 10 13 -16 51 -35 70 -35 16 1 16 2 -2 16 -16
12 -17 16 -6 23 7 5 10 14 7 20 -5 7 4 11 27 11 26 0 36 5 45 25 10 21 17 24
37 19 15 -4 25 -2 25 5 0 13 27 15 32 2 2 -5 21 -2 43 6 22 9 60 17 85 19 25
1 57 5 73 9 48 13 131 23 147 18 8 -3 35 -7 60 -9z m240 -13 c0 -11 -39 -25
-47 -18 -3 3 -2 10 2 16 8 13 45 15 45 2z m50 -26 c0 -8 -4 -15 -10 -15 -5 0
-10 7 -10 15 0 8 5 15 10 15 6 0 10 -7 10 -15z m77 -21 c-3 -3 -12 -4 -19 -1
-8 3 -5 6 6 6 11 1 17 -2 13 -5z m15 -36 c-9 -9 -15 -9 -24 0 -9 9 -7 12 12
12 19 0 21 -3 12 -12z m2010 -329 c12 -6 38 -29 58 -50 42 -44 71 -49 110 -19
14 11 30 20 37 20 6 0 19 7 27 16 9 8 16 11 16 5 0 -7 22 -8 63 -4 l62 5 23
-46 c13 -25 30 -46 37 -46 8 0 19 -10 26 -22 6 -11 21 -32 33 -45 39 -46 190
-193 197 -193 3 0 6 -12 6 -27 0 -51 15 -128 30 -161 15 -31 44 -47 72 -40 12
3 35 -26 61 -77 13 -25 33 -59 40 -65 14 -12 47 -78 58 -115 6 -22 21 -69 32
-104 11 -35 20 -73 20 -83 0 -10 3 -18 8 -18 8 0 32 -48 32 -65 0 -7 12 -18
26 -25 14 -8 32 -26 40 -41 7 -15 27 -37 44 -49 25 -18 30 -28 30 -65 0 -53 8
-77 24 -68 6 3 8 3 4 -1 -6 -8 44 -98 69 -124 7 -7 13 -19 13 -26 0 -7 10 -25
21 -40 12 -15 26 -46 31 -69 9 -41 17 -62 68 -172 64 -140 74 -157 101 -183
27 -25 30 -36 38 -122 6 -67 14 -106 29 -133 18 -31 21 -47 15 -97 -4 -39 -1
-70 7 -91 13 -30 12 -33 -14 -55 -15 -13 -37 -24 -50 -24 -35 0 -85 -20 -113
-46 -15 -14 -36 -22 -56 -22 -38 1 -113 32 -119 48 -5 16 -128 15 -198 -2 -72
-19 -90 -18 -90 2 0 10 8 24 18 30 15 10 14 11 -6 7 -16 -4 -32 4 -54 26 -18
18 -31 35 -30 40 2 7 -68 12 -130 8 -29 -2 -38 1 -38 13 0 9 -4 16 -9 16 -6 0
-11 17 -13 38 l-3 37 -57 3 c-40 2 -58 7 -58 16 0 8 -7 16 -15 20 -8 3 -12 12
-9 20 10 27 -45 95 -77 96 -10 0 -19 12 -22 30 -4 17 -13 30 -21 30 -9 0 -17
15 -21 40 -4 23 -12 40 -20 40 -8 0 -23 12 -34 26 -13 16 -27 24 -36 20 -25
-9 -43 4 -50 35 -4 19 -13 29 -25 29 -19 0 -30 19 -30 54 0 20 -51 76 -70 76
-4 0 -22 19 -41 42 -19 23 -46 54 -61 69 -18 17 -28 38 -28 56 0 46 -11 73
-30 73 -17 0 -93 74 -84 83 3 2 -12 8 -32 11 -20 4 -44 11 -53 16 -9 5 -24 11
-35 14 -14 5 -17 12 -12 32 6 23 5 25 -11 18 -10 -4 -41 -9 -68 -12 -49 -3
-52 -3 -70 31 -17 33 -18 36 -1 71 10 22 24 36 35 36 14 0 23 14 36 52 16 50
14 98 -5 98 -6 0 -10 7 -10 15 0 8 -8 15 -17 15 -25 1 -63 35 -63 56 0 9 -17
33 -37 53 -35 34 -38 39 -34 88 l3 52 -65 63 c-35 35 -66 72 -68 83 -3 13 -12
20 -28 20 -25 1 -75 50 -66 66 4 5 -1 12 -9 15 -23 9 -20 30 9 59 16 15 37 25
55 25 22 0 28 4 27 18 -2 31 34 94 82 146 83 90 90 96 109 96 11 0 25 7 32 15
7 9 46 31 87 50 73 34 105 60 123 101 9 23 66 54 98 54 12 0 24 5 27 10 8 13
21 13 47 -1z m-1112 -804 c0 -28 5 -56 12 -63 18 -18 27 -112 16 -161 -11 -43
-10 -44 25 -75 40 -34 56 -78 37 -100 -8 -11 -9 -20 0 -35 8 -16 7 -27 -3 -47
-8 -16 -17 -22 -21 -16 -3 6 -2 13 4 17 13 8 13 55 0 55 -5 0 -10 -7 -10 -15
0 -8 -9 -15 -20 -15 -18 0 -25 11 -21 33 1 5 -6 6 -16 3 -10 -3 -36 -6 -58 -8
-38 -3 -40 -2 -43 28 -2 19 3 38 12 47 20 20 20 27 0 27 -15 0 -45 -24 -44
-35 2 -30 -1 -32 -55 -27 l-55 4 0 -31 c0 -17 -4 -31 -8 -31 -16 0 -47 28 -40
36 10 9 -11 34 -28 34 -11 0 -13 -7 -8 -26 6 -25 5 -26 -20 -20 -25 6 -26 5
-26 -33 0 -22 -7 -46 -15 -55 -8 -8 -15 -22 -15 -30 0 -21 -10 -20 -25 1 -13
17 -14 17 -32 0 -21 -18 -58 -23 -68 -7 -3 5 7 16 22 24 26 14 27 15 6 16 -13
0 -23 4 -23 8 0 15 -49 32 -89 32 -30 0 -40 4 -44 20 -3 10 0 22 7 25 6 3 -9
3 -33 0 -28 -4 -50 -13 -58 -25 -15 -21 -48 -27 -58 -10 -10 16 -85 12 -85 -4
0 -20 -33 -29 -80 -21 -32 5 -39 4 -44 -13 -7 -21 -36 -38 -36 -22 0 13 -55
13 -102 -1 -27 -7 -38 -15 -38 -29 0 -11 -5 -20 -11 -20 -6 0 -8 -7 -5 -17 4
-10 4 -15 1 -11 -9 9 -55 -37 -55 -56 0 -9 -6 -16 -14 -16 -8 0 -16 -6 -19
-12 -7 -21 -43 6 -39 29 2 12 -4 23 -14 27 -23 9 -28 1 -27 -41 1 -20 -5 -42
-12 -49 -7 -8 -16 -19 -19 -26 -4 -10 -7 -10 -12 -1 -3 6 -14 21 -25 34 -15
17 -22 20 -31 11 -7 -7 -20 -12 -30 -12 -15 0 -17 4 -9 19 9 15 7 20 -11 24
-29 8 -35 1 -20 -23 7 -11 12 -23 12 -28 0 -13 -123 -1 -138 14 -7 8 -24 14
-38 14 -20 0 -24 -5 -24 -30 0 -30 -23 -43 -33 -17 -3 6 -6 0 -6 -15 -1 -25
-5 -28 -33 -28 -18 0 -42 -3 -54 -6 -12 -3 -30 2 -43 14 -20 15 -22 22 -13 39
9 17 9 22 -3 27 -11 4 -15 -2 -15 -24 0 -28 -2 -30 -40 -30 -22 0 -40 -4 -40
-10 0 -17 -25 -11 -43 10 -20 24 -31 25 -51 4 -19 -18 -21 -45 -4 -62 9 -9 8
-12 -5 -12 -14 0 -16 -6 -11 -27 7 -25 6 -26 -30 -20 -31 5 -36 3 -36 -14 0
-12 -7 -19 -20 -19 -13 0 -20 7 -20 19 0 27 -25 33 -45 11 -14 -15 -22 -17
-37 -9 -25 13 -52 -6 -29 -20 9 -6 10 -10 2 -16 -16 -9 -41 13 -41 36 0 11 -6
19 -14 19 -15 0 -29 -27 -21 -40 3 -4 -2 -21 -10 -36 -8 -16 -15 -37 -15 -46
0 -22 -18 -24 -26 -3 -4 8 -10 12 -15 9 -5 -3 -9 4 -9 16 0 15 -5 20 -17 18
-11 -2 -17 -11 -15 -21 2 -9 -2 -17 -8 -17 -6 0 -18 -7 -26 -15 -9 -8 -12 -15
-8 -15 4 0 5 -2 2 -5 -8 -8 -56 16 -62 31 -3 7 2 18 9 24 21 18 9 30 -31 30
-24 0 -34 -5 -34 -15 0 -8 7 -15 15 -15 8 0 15 -4 15 -10 0 -5 -6 -10 -14 -10
-16 0 -26 -21 -26 -52 0 -12 -3 -19 -6 -15 -7 7 -34 -17 -34 -31 0 -6 -19 -12
-42 -15 -70 -9 -108 -19 -108 -28 0 -5 -6 -6 -14 -3 -8 3 -17 1 -21 -5 -3 -6
-1 -11 4 -11 21 0 11 -31 -14 -42 -13 -6 -27 -18 -30 -27 -6 -21 -95 -23 -95
-2 0 9 7 11 21 8 13 -3 28 1 36 9 14 13 13 17 -2 34 -11 12 -13 20 -7 20 7 0
12 5 12 10 0 6 -9 10 -21 10 -15 0 -19 -5 -15 -15 3 -8 1 -15 -4 -15 -5 0 -17
-16 -26 -35 -9 -19 -20 -35 -25 -35 -5 0 -9 -8 -9 -19 0 -21 -23 -45 -33 -34
-4 3 -7 -1 -7 -10 0 -23 9 -21 31 7 13 16 26 22 39 19 11 -3 17 -9 14 -14 -3
-5 5 -10 18 -10 l23 -2 -22 -4 c-16 -3 -23 -11 -23 -29 0 -13 5 -24 10 -24 6
0 10 9 10 20 0 16 7 20 34 20 31 0 33 -2 29 -27 -4 -26 -3 -26 10 -10 18 21
26 21 48 1 13 -12 22 -13 38 -5 11 6 52 11 91 11 64 0 71 2 79 23 5 12 27 38
50 56 22 18 39 37 38 43 -3 15 67 36 91 27 12 -5 28 -6 36 -3 15 6 40 -28 29
-39 -12 -13 46 -18 68 -6 17 9 24 9 27 0 4 -13 32 -15 32 -2 0 5 -9 11 -20 14
-13 3 -18 11 -14 20 8 23 34 30 34 9 1 -15 2 -15 11 1 10 17 12 17 29 2 16
-15 18 -15 24 0 4 11 12 14 26 10 27 -9 60 3 60 21 0 19 20 18 36 -3 12 -16
15 -16 27 -3 7 9 33 16 66 18 30 2 60 6 65 10 6 4 37 5 69 3 49 -2 63 1 82 19
22 21 24 21 69 6 62 -21 71 -20 95 10 l21 27 21 -27 c21 -27 22 -27 43 -8 11
10 29 22 39 25 10 4 16 11 13 16 -3 5 2 7 11 5 10 -2 36 -6 58 -8 22 -3 59 -8
83 -12 28 -4 51 -2 66 6 18 9 28 9 45 0 14 -7 27 -8 34 -2 7 5 28 10 47 11 50
3 80 8 120 20 19 6 50 11 68 11 18 0 41 4 50 9 9 5 51 12 92 16 41 4 78 12 82
18 3 6 24 8 51 4 31 -4 50 -2 63 8 12 9 45 14 92 15 40 0 82 4 92 10 10 5 36
12 57 15 85 10 140 23 178 39 22 10 53 20 70 23 16 3 40 13 53 24 14 10 28 16
33 13 11 -6 79 17 79 27 0 3 16 9 35 12 37 6 69 29 57 42 -4 4 5 5 20 1 20 -4
32 -1 46 14 16 17 24 19 46 11 14 -6 26 -8 26 -5 0 3 17 -5 37 -17 26 -16 48
-22 77 -20 23 2 59 4 81 5 22 0 45 4 52 9 21 13 142 -12 184 -38 l39 -25 0
-84 c0 -70 3 -86 20 -101 15 -13 19 -27 16 -59 -21 -223 -37 -283 -77 -293
-10 -3 -19 -11 -19 -18 0 -7 -9 -11 -22 -9 -40 7 -61 -20 -59 -73 1 -27 6 -50
11 -51 6 -2 17 -10 24 -18 9 -9 25 -12 44 -8 25 5 34 1 54 -22 12 -15 40 -47
61 -70 20 -22 37 -47 37 -54 0 -8 10 -24 22 -37 34 -36 47 -105 48 -250 0 -73
4 -133 9 -133 5 0 11 -17 14 -37 4 -21 15 -43 25 -50 28 -17 42 -205 18 -232
-9 -10 -18 -39 -21 -64 -3 -26 -10 -57 -17 -69 -15 -27 -56 -68 -67 -68 -5 0
-11 -14 -15 -30 -7 -36 19 -88 69 -138 18 -19 38 -48 45 -65 6 -18 18 -45 25
-62 28 -60 28 -80 -2 -141 -15 -31 -36 -59 -46 -62 -17 -4 -18 -13 -12 -106 7
-105 -2 -156 -28 -156 -9 0 -19 -21 -26 -55 -7 -30 -17 -57 -22 -60 -5 -4 -9
-27 -9 -53 0 -26 -5 -75 -10 -110 -9 -68 -12 -61 48 -125 10 -11 16 -32 15
-60 -2 -36 -8 -48 -47 -82 -43 -39 -76 -90 -76 -118 0 -18 -45 -66 -85 -91
-41 -26 -49 -42 -55 -111 l-5 -60 -48 -7 c-62 -8 -73 -18 -109 -98 -16 -36
-37 -80 -46 -98 -17 -32 -16 -33 12 -55 27 -22 28 -26 30 -122 2 -84 6 -108
28 -150 14 -27 30 -83 37 -123 11 -70 65 -202 82 -202 18 0 38 -62 42 -129 3
-57 9 -78 32 -111 15 -22 31 -40 35 -40 11 0 47 -83 54 -125 8 -45 51 -180 66
-208 6 -9 15 -52 21 -94 14 -99 35 -140 101 -191 34 -26 62 -58 76 -89 13 -26
28 -55 32 -63 12 -22 65 -130 83 -171 27 -58 51 -151 50 -192 -2 -61 -34 -167
-55 -178 -10 -5 -18 -16 -18 -24 0 -31 -176 -187 -257 -229 -18 -9 -33 -20
-33 -24 0 -4 -10 -12 -23 -17 -12 -6 -49 -25 -82 -42 -33 -17 -100 -51 -150
-74 -49 -24 -116 -58 -147 -76 -31 -17 -67 -35 -80 -38 -22 -7 -167 -77 -252
-122 -22 -12 -83 -36 -133 -54 -51 -18 -93 -35 -93 -39 0 -10 -137 -70 -160
-70 -10 0 -41 -8 -67 -19 -26 -10 -81 -24 -120 -31 -86 -14 -131 -4 -179 41
-17 16 -34 26 -39 22 -4 -5 -5 -2 0 6 4 7 3 16 -2 20 -6 3 -20 26 -33 51 -12
25 -28 52 -35 60 -51 59 -127 248 -140 349 -9 68 -41 130 -91 173 -42 37 -118
137 -184 243 -24 39 -60 86 -80 106 -70 68 -103 128 -125 224 -4 17 -21 53
-40 80 -18 28 -56 92 -85 144 -29 52 -70 124 -93 160 -22 36 -48 80 -57 96
-39 73 -73 125 -80 125 -12 0 -64 80 -78 118 -14 42 -65 115 -119 174 -51 56
-82 125 -108 243 -3 16 -19 48 -34 70 -32 48 -43 91 -47 195 -3 66 -7 78 -29
98 -55 47 -90 28 -264 -149 -169 -171 -218 -250 -231 -368 -9 -88 11 -218 55
-354 29 -90 34 -115 26 -143 -6 -23 -6 -34 1 -34 16 0 3 -92 -21 -145 -36 -81
-102 -170 -150 -201 -69 -45 -151 -74 -376 -134 -44 -12 -113 -33 -153 -47
l-73 -26 -177 12 c-97 6 -269 16 -382 22 -245 12 -322 23 -415 56 -38 13 -85
29 -102 35 -18 6 -33 15 -33 20 0 4 -7 8 -15 8 -8 0 -33 19 -54 41 -39 42 -45
57 -85 229 -9 36 -20 121 -26 190 -6 69 -16 141 -21 160 -13 50 -11 243 3 277
6 15 12 57 13 92 1 58 -1 67 -24 87 -25 21 -26 27 -32 166 -4 89 -12 165 -23
202 -12 41 -18 103 -20 207 -2 127 -5 152 -21 169 -11 12 -13 20 -6 20 9 0 9
5 0 21 -6 12 -11 48 -10 80 l1 59 -48 0 c-44 0 -49 2 -59 30 -11 29 -30 36
-45 15 -4 -5 -8 0 -8 13 0 13 6 22 15 22 10 0 15 10 15 31 0 16 5 51 12 76 10
40 9 47 -6 55 -27 15 -57 51 -71 85 -10 22 -22 34 -42 38 -15 3 -41 12 -56 20
-16 8 -37 15 -46 15 -11 0 -25 15 -36 40 -10 22 -24 40 -30 40 -7 0 -16 8 -19
18 -3 9 -13 28 -21 42 -10 17 -14 56 -13 138 0 87 -3 116 -13 123 -8 5 -10 9
-5 9 4 0 -3 15 -16 33 -62 81 -63 87 -58 370 2 118 0 171 -8 179 -8 8 -12 51
-12 119 0 59 -5 130 -11 157 -11 47 -10 54 20 115 20 44 31 81 31 110 0 57 52
188 94 235 19 22 21 35 19 166 -2 115 -6 153 -22 193 -10 27 -22 70 -26 95 -6
40 -3 51 19 84 14 21 26 48 26 60 0 49 69 204 91 204 5 0 9 6 9 13 0 18 84 54
139 61 38 4 49 0 85 -27 23 -18 47 -40 54 -49 13 -18 68 -48 86 -48 6 0 44 25
85 55 41 30 80 55 87 55 7 0 18 8 23 18 5 10 29 27 53 37 24 11 54 27 67 37
13 10 31 18 39 18 9 0 23 7 33 16 9 8 40 21 69 29 29 8 59 20 69 28 9 8 34 22
56 32 22 10 58 26 80 36 22 10 56 22 74 25 18 4 56 22 83 40 28 19 56 34 63
34 7 0 28 13 46 30 23 20 49 32 82 36 26 4 53 14 60 23 21 29 71 55 100 53 16
-1 41 7 57 18 15 11 35 20 43 20 9 0 19 5 22 10 3 6 17 10 29 10 13 0 29 7 37
16 19 24 87 55 121 56 16 1 32 7 35 15 7 18 89 53 126 53 16 0 35 7 42 16 16
23 78 42 103 33 16 -6 28 -1 50 22 22 23 41 31 83 36 38 4 60 13 75 29 26 27
106 54 111 37 5 -14 43 -4 43 11 0 20 79 48 109 38 21 -8 31 -5 52 14 18 18
43 27 90 32 44 6 76 17 104 36 31 21 47 26 72 21 25 -4 41 0 70 19 46 31 94
42 119 28 15 -8 27 -6 53 11 26 16 50 21 99 20 50 0 73 5 106 23 24 14 58 24
80 24 38 0 88 12 133 33 17 7 28 6 48 -7 26 -17 28 -17 50 4 26 24 89 42 121
34 12 -3 37 2 55 11 23 13 47 16 88 12 34 -3 81 1 119 10 49 12 65 13 77 3 12
-10 23 -8 55 9 26 13 59 21 91 21 35 0 58 6 79 21 22 17 38 21 68 17 21 -3 47
-1 58 6 10 6 69 19 129 29 61 9 135 22 165 28 30 5 98 13 150 17 l95 8 37 -35
c33 -32 37 -42 38 -86z m-182 -437 c-3 -7 -11 -13 -18 -13 -7 0 -15 6 -17 13
-3 7 4 12 17 12 13 0 20 -5 18 -12z m-844 -133 c-4 -8 -8 -15 -10 -15 -2 0 -4
7 -4 15 0 8 4 15 10 15 5 0 7 -7 4 -15z m-1250 -350 c4 -10 -1 -15 -14 -15
-20 0 -26 11 -13 23 10 11 20 8 27 -8z m571 -115 c3 -6 -1 -7 -9 -4 -18 7 -21
14 -7 14 6 0 13 -4 16 -10z m-950 -70 c-3 -5 -10 -10 -16 -10 -5 0 -9 5 -9 10
0 6 7 10 16 10 8 0 12 -4 9 -10z m255 -110 c0 -5 -5 -10 -11 -10 -5 0 -7 5 -4
10 3 6 8 10 11 10 2 0 4 -4 4 -10z m4320 -420 c0 -5 -2 -10 -4 -10 -3 0 -8 5
-11 10 -3 6 -1 10 4 10 6 0 11 -4 11 -10z m118 -83 c19 -15 14 -37 -8 -37 -10
0 -31 -5 -45 -12 -30 -13 -33 -11 -41 30 l-6 32 43 -1 c24 -1 50 -6 57 -12z
m3545 -7221 c24 -19 21 -58 -7 -78 -22 -16 -24 -16 -43 2 -15 13 -19 27 -15
47 8 43 32 54 65 29z m7257 -1786 c0 -5 -2 -10 -4 -10 -3 0 -8 5 -11 10 -3 6
-1 10 4 10 6 0 11 -4 11 -10z"/>
<path d="M18240 22525 c0 -10 7 -15 18 -13 21 4 19 22 -2 26 -10 2 -16 -3 -16
-13z"/>
<path d="M18377 22503 c-4 -3 -7 -11 -7 -17 0 -6 5 -5 12 2 6 6 9 14 7 17 -3
3 -9 2 -12 -2z"/>
<path d="M18278 22468 c9 -9 15 -9 24 0 9 9 7 12 -12 12 -19 0 -21 -3 -12 -12z"/>
<path d="M18320 22389 c0 -5 5 -7 10 -4 6 3 10 8 10 11 0 2 -4 4 -10 4 -5 0
-10 -5 -10 -11z"/>
<path d="M18305 22040 c-3 -5 -1 -10 4 -10 6 0 11 5 11 10 0 6 -2 10 -4 10 -3
0 -8 -4 -11 -10z"/>
<path d="M18310 21989 c0 -5 5 -7 10 -4 6 3 10 8 10 11 0 2 -4 4 -10 4 -5 0
-10 -5 -10 -11z"/>
<path d="M16051 21214 c0 -11 3 -14 6 -6 3 7 2 16 -1 19 -3 4 -6 -2 -5 -13z"/>
<path d="M15364 21173 c-37 -7 -37 -51 -1 -130 5 -12 7 -40 4 -62 -2 -21 0
-44 5 -49 12 -12 2 -65 -11 -58 -4 3 -3 -12 2 -33 15 -54 6 -68 -47 -76 -42
-7 -72 -35 -47 -43 10 -3 9 -7 -20 -63 -10 -19 -9 -21 10 -16 12 3 21 1 21 -3
0 -5 20 -12 45 -16 35 -5 45 -10 45 -25 0 -11 10 -24 23 -29 12 -5 16 -9 9 -9
-9 -1 -10 -6 -4 -16 4 -9 5 -39 0 -68 -5 -29 -10 -86 -12 -127 -2 -41 -9 -103
-15 -138 -7 -34 -10 -77 -8 -95 2 -17 2 -24 0 -14 -2 9 -10 17 -16 17 -16 -1
-71 -50 -63 -57 3 -3 30 -7 61 -8 41 -2 55 1 55 11 0 8 5 14 11 14 12 0 2
-178 -11 -195 -4 -5 -10 -52 -12 -103 -3 -51 -9 -96 -12 -100 -4 -3 -16 -1
-26 6 -24 15 -30 15 -30 1 0 -5 4 -8 9 -5 13 9 18 -94 5 -112 -7 -9 -19 -13
-32 -10 -12 3 -22 2 -24 -2 -2 -4 -20 -10 -40 -14 -31 -6 -38 -4 -38 9 0 8 -7
15 -16 15 -12 0 -15 -6 -10 -25 5 -20 3 -25 -13 -25 -11 0 -21 6 -24 13 -2 6
-8 8 -13 4 -10 -9 10 -24 45 -34 15 -4 26 -2 29 5 2 7 11 12 20 12 15 -1 15
-2 0 -14 -10 -7 -18 -18 -18 -23 0 -5 -35 -8 -82 -7 -110 4 -128 7 -143 27 -9
12 -21 15 -41 11 -16 -3 -42 0 -59 7 -16 7 -49 14 -72 15 -24 2 -59 10 -78 20
-26 12 -47 14 -85 9 -42 -6 -55 -4 -73 11 -32 28 -64 44 -86 44 -10 0 -24 7
-31 16 -20 23 -72 42 -106 37 -17 -3 -47 2 -67 11 -36 15 -44 33 -38 84 2 15
-55 17 -64 2 -4 -6 -12 -7 -23 -1 -43 24 -114 -67 -89 -116 15 -28 75 -73 98
-73 9 0 27 -8 40 -19 42 -32 119 -69 137 -65 9 3 28 -6 42 -18 39 -37 93 -65
114 -60 11 2 16 0 12 -7 -7 -10 23 -16 65 -12 11 1 15 -8 16 -33 1 -19 4 -39
8 -45 9 -16 44 -13 63 5 32 33 182 -10 182 -52 0 -8 9 -14 20 -14 22 0 27 -16
8 -22 -16 -6 19 -43 50 -53 13 -4 21 -13 20 -22 -2 -9 3 -18 10 -20 6 -3 12 0
12 5 0 12 92 -6 101 -20 4 -6 16 -4 32 6 24 16 26 16 41 -6 l16 -22 29 34 c26
31 32 34 50 23 11 -7 33 -13 48 -13 17 0 36 -10 49 -26 24 -27 40 -95 28 -116
-4 -7 -3 -10 1 -5 5 4 24 -14 42 -40 19 -27 43 -51 54 -55 32 -12 69 1 69 24
0 12 11 31 25 44 14 13 25 27 25 33 0 5 11 18 25 28 32 24 44 92 20 116 -19
20 -23 73 -6 90 14 14 64 16 73 3 6 -9 78 59 78 74 0 9 46 30 65 30 8 0 15 -7
15 -15 0 -19 30 -19 75 -1 27 11 32 19 28 35 -4 17 1 23 24 31 16 6 37 23 46
38 32 52 67 84 84 78 9 -4 20 -1 24 5 4 7 22 17 41 23 22 8 34 18 36 34 2 12
10 22 18 22 8 0 14 7 14 15 0 23 39 39 66 26 19 -8 24 -8 24 3 0 22 25 37 38
24 9 -9 12 -7 12 9 0 13 13 28 34 41 26 15 38 32 46 61 6 23 15 41 20 41 6 0
10 7 10 16 0 13 8 15 40 12 32 -3 40 0 40 13 0 21 24 31 56 23 13 -3 24 -2 24
4 0 5 13 12 28 15 16 3 34 17 41 31 13 23 12 27 -10 47 -24 20 -24 25 -18 97
5 43 13 78 21 83 9 6 8 9 -5 15 -23 8 -21 17 5 29 18 8 25 22 31 63 5 28 12
52 16 52 5 0 14 21 21 48 7 26 18 53 23 60 15 19 4 24 -60 28 -39 2 -65 -2
-81 -12 -37 -24 -82 -76 -88 -101 -4 -13 -10 -23 -14 -23 -5 0 -6 -8 -3 -18 7
-29 -61 -163 -71 -140 -3 7 -3 1 0 -14 5 -22 2 -28 -10 -28 -9 0 -21 -11 -26
-25 -5 -14 -17 -28 -25 -31 -8 -4 -15 -12 -15 -20 0 -23 -33 -54 -79 -75 -41
-18 -45 -18 -63 -3 -11 10 -18 12 -18 6 0 -7 -16 -12 -40 -12 -24 0 -40 -5
-40 -12 0 -6 -7 -18 -15 -27 -32 -34 -65 -79 -65 -89 0 -6 -13 -20 -28 -30
-15 -11 -33 -31 -40 -44 -7 -12 -31 -36 -53 -51 -21 -16 -39 -35 -39 -43 0 -8
-4 -14 -9 -14 -5 0 -14 -14 -20 -30 -6 -19 -21 -34 -38 -40 -42 -15 -93 -44
-93 -51 0 -4 -10 -9 -23 -13 -12 -3 -31 -13 -42 -23 -36 -33 -69 -42 -90 -27
-17 13 -17 18 -6 61 20 74 27 155 18 185 -5 16 -12 26 -15 24 -6 -4 -6 122 0
164 4 28 -14 155 -27 185 -9 23 -10 56 -4 125 4 52 6 109 3 126 -8 42 15 76
66 100 22 10 40 24 40 31 0 6 3 19 7 29 4 11 2 15 -4 11 -6 -4 -18 2 -28 13
-10 11 -25 20 -33 20 -14 0 -72 58 -72 73 0 15 -2 23 -12 40 -10 20 7 87 26
99 7 5 5 18 -7 43 -11 24 -17 60 -17 110 0 67 -3 78 -27 105 -14 17 -30 30
-35 30 -17 0 -46 39 -53 71 -9 40 -23 70 -33 68 -4 -1 -17 -4 -28 -6z m553
-1819 c-3 -3 -12 -4 -19 -1 -8 3 -5 6 6 6 11 1 17 -2 13 -5z"/>
<path d="M17905 21170 c3 -5 8 -10 11 -10 2 0 4 5 4 10 0 6 -5 10 -11 10 -5 0
-7 -4 -4 -10z"/>
<path d="M15851 21026 c-9 -10 -9 -16 -1 -21 17 -10 37 12 24 25 -8 8 -15 6
-23 -4z"/>
<path d="M15102 20864 c9 -9 24 -14 32 -11 27 11 17 27 -16 27 -30 0 -31 -1
-16 -16z"/>
<path d="M15086 20804 c-3 -9 -6 -18 -6 -20 0 -9 79 -3 85 6 3 6 -3 10 -14 10
-11 0 -23 5 -26 10 -9 15 -32 12 -39 -6z"/>
<path d="M17876 20431 c-7 -11 22 -23 35 -15 5 3 9 9 9 15 0 12 -37 12 -44 0z"/>
<path d="M17713 20403 c-25 -3 -34 -10 -39 -29 -4 -14 -4 -28 0 -31 3 -4 6 1
6 10 0 13 10 17 44 17 46 0 69 16 45 31 -8 5 -16 8 -19 7 -3 -1 -20 -3 -37 -5z"/>
<path d="M15872 20047 c-26 -9 -32 -16 -30 -37 1 -14 -1 -31 -5 -37 -4 -6 5
-25 19 -42 21 -26 33 -31 69 -31 31 0 49 6 66 23 13 13 38 29 56 36 30 12 53
41 33 41 -5 0 -10 10 -12 23 -3 20 -9 22 -58 23 -30 0 -66 3 -80 6 -14 3 -40
1 -58 -5z"/>
<path d="M16080 20040 c0 -5 5 -10 10 -10 6 0 10 5 10 10 0 6 -4 10 -10 10 -5
0 -10 -4 -10 -10z"/>
<path d="M15162 19730 c-22 -22 -43 -53 -47 -70 -6 -25 -3 -31 20 -42 20 -9
28 -9 38 1 9 9 7 13 -11 18 -29 7 -23 28 9 29 36 1 58 14 52 30 -7 19 -20 18
-27 -3 -3 -10 -3 0 -1 21 2 22 10 43 17 48 8 4 8 8 2 8 -6 0 -29 -18 -52 -40z"/>
<path d="M15660 19721 c0 -22 -5 -41 -12 -44 -10 -4 -10 -7 -1 -17 10 -11 13
-10 18 2 4 9 14 15 23 13 9 -1 11 0 4 2 -8 3 -10 17 -6 44 5 32 4 39 -10 39
-12 0 -16 -10 -16 -39z"/>
<path d="M17026 19381 c-4 -7 -5 -15 -2 -18 9 -9 19 4 14 18 -4 11 -6 11 -12
0z"/>
<path d="M17055 19350 c3 -5 8 -10 11 -10 2 0 4 5 4 10 0 6 -5 10 -11 10 -5 0
-7 -4 -4 -10z"/>
<path d="M16320 19308 c0 -36 4 -35 14 5 4 16 2 27 -4 27 -5 0 -10 -14 -10
-32z"/>
<path d="M16355 19330 c3 -5 10 -10 16 -10 5 0 9 5 9 10 0 6 -7 10 -16 10 -8
0 -12 -4 -9 -10z"/>
<path d="M17016 19331 c-3 -5 1 -11 9 -15 9 -3 15 0 15 9 0 16 -16 20 -24 6z"/>
<path d="M16510 19290 c0 -5 5 -10 10 -10 6 0 10 5 10 10 0 6 -4 10 -10 10 -5
0 -10 -4 -10 -10z"/>
<path d="M16320 19234 c0 -8 10 -14 26 -14 28 0 25 15 -6 23 -13 3 -20 0 -20
-9z"/>
<path d="M16820 19174 c-11 -12 -10 -18 3 -32 16 -15 18 -15 34 0 13 14 14 20
3 32 -7 9 -16 16 -20 16 -4 0 -13 -7 -20 -16z"/>
<path d="M15048 19063 c6 -2 18 -2 25 0 6 3 1 5 -13 5 -14 0 -19 -2 -12 -5z"/>
<path d="M17260 19000 c0 -5 5 -10 10 -10 6 0 10 -7 10 -15 0 -8 5 -15 10 -15
13 0 12 11 -4 33 -15 19 -26 22 -26 7z"/>
<path d="M17200 18930 c0 -5 5 -10 11 -10 5 0 7 5 4 10 -3 6 -8 10 -11 10 -2
0 -4 -4 -4 -10z"/>
<path d="M15438 18690 c-28 -8 -88 -50 -72 -50 5 0 10 -19 10 -42 2 -84 27
-149 79 -204 19 -20 35 -44 35 -53 0 -30 17 -44 44 -39 19 4 31 0 42 -16 11
-14 18 -17 21 -9 3 8 15 10 34 6 28 -5 30 -4 24 19 -4 16 -1 29 8 37 8 6 13
20 10 30 -2 9 3 23 12 31 20 16 63 22 70 9 10 -15 52 -10 59 6 8 21 26 19 27
-2 0 -14 2 -13 9 4 9 22 7 50 -5 90 -6 19 -17 23 -78 29 l-71 7 -76 79 c-71
72 -79 78 -116 77 -21 0 -51 -4 -66 -9z"/>
<path d="M16892 18629 c2 -6 8 -10 13 -10 5 0 11 4 13 10 2 6 -4 11 -13 11 -9
0 -15 -5 -13 -11z"/>
<path d="M16336 18575 c-3 -9 0 -15 9 -15 8 0 15 7 15 15 0 8 -4 15 -9 15 -5
0 -11 -7 -15 -15z"/>
<path d="M12800 18569 c0 -5 5 -7 10 -4 6 3 10 8 10 11 0 2 -4 4 -10 4 -5 0
-10 -5 -10 -11z"/>
<path d="M14545 18490 c-3 -5 -1 -10 4 -10 6 0 11 5 11 10 0 6 -2 10 -4 10 -3
0 -8 -4 -11 -10z"/>
<path d="M14560 18434 c0 -8 5 -12 10 -9 6 4 8 11 5 16 -9 14 -15 11 -15 -7z"/>
<path d="M15877 17643 c-4 -3 -7 -15 -7 -25 0 -10 -7 -18 -15 -18 -8 0 -15 -6
-15 -14 0 -9 8 -12 26 -8 14 2 29 0 33 -5 7 -11 140 3 154 16 4 4 -4 18 -17
31 -23 20 -28 21 -55 10 -25 -10 -35 -9 -62 4 -37 19 -34 18 -42 9z"/>
<path d="M14880 16899 c0 -11 4 -18 10 -14 5 3 7 12 3 20 -7 21 -13 19 -13 -6z"/>
<path d="M14340 16769 c0 -16 4 -28 9 -25 5 3 9 17 9 31 0 14 -4 25 -9 25 -5
0 -9 -14 -9 -31z"/>
<path d="M11555 15642 c-3 -8 -1 -20 5 -26 7 -7 10 -6 10 2 0 7 13 12 30 12
31 0 43 19 13 21 -10 0 -26 2 -35 4 -9 2 -19 -4 -23 -13z"/>
<path d="M11520 15590 c0 -5 5 -10 10 -10 6 0 10 5 10 10 0 6 -4 10 -10 10 -5
0 -10 -4 -10 -10z"/>
<path d="M11968 13993 c7 -3 16 -2 19 1 4 3 -2 6 -13 5 -11 0 -14 -3 -6 -6z"/>
<path d="M14720 15829 c0 -5 5 -7 10 -4 6 3 10 8 10 11 0 2 -4 4 -10 4 -5 0
-10 -5 -10 -11z"/>
<path d="M14745 15770 c-3 -5 1 -10 10 -10 9 0 13 5 10 10 -3 6 -8 10 -10 10
-2 0 -7 -4 -10 -10z"/>
<path d="M14562 15630 c0 -14 2 -19 5 -12 2 6 2 18 0 25 -3 6 -5 1 -5 -13z"/>
<path d="M14218 15554 c-35 -18 -36 -34 -3 -34 16 0 25 6 25 15 0 8 7 15 15
15 8 0 15 5 15 10 0 14 -20 12 -52 -6z"/>
<path d="M13968 15443 c6 -2 18 -2 25 0 6 3 1 5 -13 5 -14 0 -19 -2 -12 -5z"/>
<path d="M13820 15320 c0 -5 5 -10 10 -10 6 0 10 5 10 10 0 6 -4 10 -10 10 -5
0 -10 -4 -10 -10z"/>
<path d="M18060 14421 c0 -6 5 -13 10 -16 6 -3 10 1 10 9 0 9 -4 16 -10 16 -5
0 -10 -4 -10 -9z"/>
<path d="M16844 14516 c-10 -8 -16 -17 -13 -20 9 -9 59 11 59 24 0 14 -23 12
-46 -4z"/>
<path d="M16720 14485 c0 -9 5 -15 11 -13 6 2 11 8 11 13 0 5 -5 11 -11 13 -6
2 -11 -4 -11 -13z"/>
<path d="M15730 14302 c-8 -9 -26 -29 -39 -45 l-24 -28 34 14 c22 8 35 21 37
35 2 12 8 22 13 22 5 0 9 5 9 10 0 15 -13 11 -30 -8z"/>
<path d="M15861 14254 c0 -11 3 -14 6 -6 3 7 2 16 -1 19 -3 4 -6 -2 -5 -13z"/>
<path d="M15275 14193 c3 -8 5 -19 5 -24 0 -6 12 -9 28 -7 19 2 27 9 27 23 0
16 -7 20 -33 21 -25 1 -32 -3 -27 -13z"/>
<path d="M14546 13883 c-3 -10 -9 -24 -12 -30 -3 -8 1 -13 10 -13 11 0 16 9
16 30 0 34 -5 38 -14 13z"/>
<path d="M14320 13784 c0 -8 5 -12 10 -9 6 3 10 10 10 16 0 5 -4 9 -10 9 -5 0
-10 -7 -10 -16z"/>
<path d="M14030 13643 c0 -4 12 -17 26 -30 32 -27 24 -43 -22 -43 -24 0 -34 5
-34 15 0 8 -4 15 -10 15 -13 0 -12 -11 3 -32 7 -9 29 -19 48 -23 34 -6 37 -4
53 28 19 42 12 70 -15 62 -11 -4 -19 -2 -19 4 0 6 -7 11 -15 11 -8 0 -15 -3
-15 -7z"/>
<path d="M13760 13455 c0 -8 5 -15 10 -15 6 0 10 7 10 15 0 8 -4 15 -10 15 -5
0 -10 -7 -10 -15z"/>
</g>
</svg>
